# xmcd CD database file
# Copyright (C) 1997 Ti Kan
#
# Track frame offsets:
#  150
#  16807
#  31597
#  51107
#  65300
#  83890
#  99752
#  111287
#  129592
#  143160
#  156367
#  169102
#  184692
#
# Disc length: 2624 seconds
#
# Revision: 1
# Processed by: cddbd v1.4b41PL1 Copyright (c) Steve Scherf et al.
# Submitted via: CDWizzard Release:4.31
#
DISCID=9d0a3e0d
DTITLE=Johnny Winter/Calvin 'Loudmouth' Johnson - Raw To The Bone
DYEAR=1900
DGENRE=
TTITLE0=Late On Blues
TTITLE1=They Call Me Loudmouth
TTITLE2=Lien On Your Body
TTITLE3=Once I Had A Woman
TTITLE4=Take My Choice
TTITLE5=Unwelcome In Your Town
TTITLE6=Gangster Of Love
TTITLE7=Alone In My Bedroom
TTITLE8=Hootchie Cootchie Man
TTITLE9=Moth Balls
TTITLE10=She's Mine
TTITLE11=Unsatisfied Mind
TTITLE12=Rock Me Baby
EXTD=
EXTT0=
EXTT1=
EXTT2=
EXTT3=
EXTT4=
EXTT5=
EXTT6=
EXTT7=
EXTT8=
EXTT9=
EXTT10=
EXTT11=
EXTT12=
PLAYORDER=
